# xmcd
# 
# Track frame offsets:
#	150
#	8369
#	25481
#	41832
#	63314
#	82944
#	108817
#	130942
#	143661
#	167215
#	184697
#	202868
#
# Disc length: 2919 seconds
#
# Revision: 2
# Processed by: cddbd v1.5.1PL0 Copyright (c) Steve Scherf et al.
# Submitted via: Audio-CD-Archiv 3.00.487
#
DISCID=910b650c
DTITLE=Joy Division - Atrocity Exhibition
DYEAR=1900
DGENRE=blues
TTITLE0=Insight (Live In Paris 18.12.79)
TTITLE1=Shadowplay (Live In Paris 18.12.79)
TTITLE2=Transmission (Live In Paris 18.12.79)
TTITLE3=Day Of The Lords (Live In Paris 18.12.79)
TTITLE4=24 Hours (Live In Paris 18.12.79)
TTITLE5=Dead Souls (Live In London 02.04.80)
TTITLE6=Sound Of Music (Live In London 02.04.80)
TTITLE7=Wilderness (Live In London 02.04.80)
TTITLE8=Colony (Live In London 02.04.80)
TTITLE9=Love Will Tear Us Apart (Live In London 02.04.80)
TTITLE10=A Means To An End (Live In London 02.04.80)
TTITLE11=Transmission (Live In London 02.04.80)
EXTD=
EXTT0=
EXTT1=
EXTT2=
EXTT3=
EXTT4=
EXTT5=
EXTT6=
EXTT7=
EXTT8=
EXTT9=
EXTT10=
EXTT11=
PLAYORDER=
